<svg width="28" height="28" viewBox="0 0 28 28" fill="none" xmlns="http://www.w3.org/2000/svg">
<rect x="1" y="1" width="26" height="26" fill="white"/>
<rect x="1" y="1" width="26" height="26" stroke="black" stroke-width="2"/>
<path d="M8.44015 18.9246C11.1572 18.9246 13.3803 16.6645 13.3803 13.9227C13.3803 12.4901 12.6763 11.1315 11.2684 9.98296C9.86045 8.83438 8.79831 7.13002 8.44015 5.33922C8.08199 7.13002 7.03221 8.84673 5.61192 9.98296C4.19162 11.1192 3.5 12.5024 3.5 13.9227C3.5 16.6645 5.72307 18.9246 8.44015 18.9246Z" stroke="black" stroke-width="2" stroke-linecap="round" stroke-linejoin="round"/>
<path d="M15.307 6.94477C16.1557 5.58726 16.7578 4.09042 17.0854 2.52333C17.7029 5.61093 19.5555 8.57502 22.0256 10.5511C24.4957 12.5271 25.7307 14.8737 25.7307 17.3438C25.7377 19.051 25.2378 20.7218 24.2941 22.1445C23.3504 23.5672 22.0056 24.6776 20.4301 25.3351C18.8545 25.9926 17.1193 26.1674 15.4443 25.8375C13.7693 25.5076 12.2299 24.6877 11.0214 23.4819" stroke="black" stroke-width="2" stroke-linecap="round" stroke-linejoin="round"/>
</svg>
